<svg version="1.2" xmlns="http://www.w3.org/2000/svg" viewBox="0 0 2480 3508" width="1440" height="1000">
	<title>Nouveau projet</title>
	<style>
		.s0 { fill: #77b3d5 } 
	</style>
	<path id="Calque 2" class="s0" d="m640 1597l18.5 25-0.5 84-18-19z"/>
	<path id="Forme 1" class="s0" d="m646 1505v105h-6v-105z"/>
	<path id="Forme 1 copy 2" class="s0" d="m658 1696v212h-6v-212z"/>
	<path id="Forme 1 copy 7" class="s0" d="m649 1723v117h-6l0.1-106.9z"/>
	<path id="Forme 1 copy 4" class="s0" d="m641 1921v60h-6v-60z"/>
	<path id="Forme 1 copy 6" class="s0" d="m649 1807v91.5l-17.5 16.5-0.5-108z"/>
	<path id="Forme 1 copy 5" class="s0" d="m639.1 1974.9l83.3 81.3-4.2 4.3-83.3-81.3z"/>
	<path id="Forme 1 copy 3" class="s0" d="m658.2 1905.8l-20.1 20.3-4.2-4.2 20-20.3z"/>
	<path id="Forme 1 copy" class="s0" d="m722 1464l-75 42-7-0.5 74.1-41.5z"/>
	<path id="Forme 2" class="s0" d="m700.5 2042.5l323 1-22.5 18.5h-282z"/>
	<path id="Forme 2 copy" class="s0" d="m712.5 1464.5l323 1-0.1 18.1-306-1z"/>
	<path id="Forme 3" class="s0" d="m1046 1466v18h-6v-18z"/>
	<path id="Forme 3 copy" class="s0" d="m1056 1466v18h-6v-18z"/>
	<path id="Forme 3 copy 2" class="s0" d="m1066 1466v18h-6v-18z"/>
	<path id="Forme 4" class="s0" d="m749.5 2016c-31.2 0-56.5-24.4-56.5-54.5 0-30.1 25.3-54.5 56.5-54.5 31.2 0 56.5 24.4 56.5 54.5 0 30.1-25.3 54.5-56.5 54.5z"/>
</svg>